<?xml version="1.0" encoding="UTF-8" standalone="no"?>
<!-- Created with Inkscape (http://www.inkscape.org/) -->

<svg
   xmlns:dc="http://purl.org/dc/elements/1.1/"
   xmlns:cc="http://creativecommons.org/ns#"
   xmlns:rdf="http://www.w3.org/1999/02/22-rdf-syntax-ns#"
   xmlns:svg="http://www.w3.org/2000/svg"
   xmlns="http://www.w3.org/2000/svg"
   xmlns:sodipodi="http://sodipodi.sourceforge.net/DTD/sodipodi-0.dtd"
   xmlns:inkscape="http://www.inkscape.org/namespaces/inkscape"
   width="1511.811"
   height="1511.811"
   viewBox="0 0 400 400"
   version="1.1"
   id="svg8"
   inkscape:version="0.92.4 (5da689c313, 2019-01-14)"
   sodipodi:docname="BinoBunny.svg">
  <defs
     id="defs2" />
  <sodipodi:namedview
     id="base"
     pagecolor="#ffffff"
     bordercolor="#666666"
     borderopacity="1.0"
     inkscape:pageopacity="0.0"
     inkscape:pageshadow="2"
     inkscape:zoom="0.35"
     inkscape:cx="315.62254"
     inkscape:cy="1002.1623"
     inkscape:document-units="mm"
     inkscape:current-layer="layer2"
     showgrid="false"
     inkscape:window-width="1920"
     inkscape:window-height="1027"
     inkscape:window-x="-8"
     inkscape:window-y="-8"
     inkscape:window-maximized="1"
     units="px"
     inkscape:snap-global="false" />
  <metadata
     id="metadata5">
    <rdf:RDF>
      <cc:Work
         rdf:about="">
        <dc:format>image/svg+xml</dc:format>
        <dc:type
           rdf:resource="http://purl.org/dc/dcmitype/StillImage" />
        <dc:title />
      </cc:Work>
    </rdf:RDF>
  </metadata>
  <g
     inkscape:label="Colors"
     inkscape:groupmode="layer"
     id="layer1"
     transform="translate(0,103)"
     style="display:inline">
    <path
       style="display:inline;fill:#646a88;fill-opacity:1;stroke:none;stroke-width:0.26458332px;stroke-linecap:butt;stroke-linejoin:miter;stroke-opacity:1"
       d="m 87.883297,115.40066 c 0,0 38.689103,-14.22394 58.602603,-10.81019 19.91351,3.41374 88.18838,-16.499775 179.79054,-30.723703 C 417.87857,59.642835 316.60416,262.19167 268.81175,263.32957 221.01933,264.46748 195.9852,226.91631 160.14088,241.14023 124.29657,255.36417 56.14533,160.64708 49.19419,143.84854 42.366711,127.34877 87.883297,115.40066 87.883297,115.40066 Z"
       id="path872"
       inkscape:connector-curvature="0"
       sodipodi:nodetypes="csssssc" />
    <ellipse
       style="display:inline;opacity:1;fill:#878787;fill-opacity:1;stroke:none;stroke-width:0;stroke-linecap:butt;stroke-linejoin:miter;stroke-miterlimit:4;stroke-dasharray:none;stroke-dashoffset:0;stroke-opacity:1;paint-order:normal"
       id="path849"
       cx="202.07574"
       cy="111.39069"
       rx="48.679947"
       ry="54.312336" />
    <path
       inkscape:connector-curvature="0"
       id="path1000"
       d="m 267.59681,72.676602 c 0,0 5.7467,-16.554865 10.53409,-11.106514 7.27946,8.284542 24.53558,21.050758 27.67527,32.186521 5.91345,7.313801 21.16193,30.212891 -11.46836,41.789781 -34.70584,12.31327 -21.90486,-4.83614 -21.90486,-4.83614 l -7.39646,-38.689105 z"
       style="display:inline;fill:#e9bcb1;fill-opacity:1;stroke:none;stroke-width:0.26458332px;stroke-linecap:butt;stroke-linejoin:miter;stroke-opacity:1"
       sodipodi:nodetypes="cscsccc" />
    <path
       style="display:inline;fill:#e9bcb1;fill-opacity:1;stroke:none;stroke-width:0.26458332px;stroke-linecap:butt;stroke-linejoin:miter;stroke-opacity:1"
       d="m 131.69301,83.539052 c 0,0 -13.98801,-19.292771 -25.41969,-11.911129 -13.543222,8.745061 -8.148793,27.841921 -9.571179,35.807337 -1.422406,7.9654 -18.491115,13.65496 8.249869,38.97358 26.741,25.31859 21.90486,-4.83614 21.90486,-4.83614 l 7.39646,-38.68911 z"
       id="path998"
       inkscape:connector-curvature="0"
       sodipodi:nodetypes="cscsccc" />
    <circle
       style="display:inline;opacity:1;fill:#ededed;fill-opacity:1;stroke:none;stroke-width:0;stroke-linecap:butt;stroke-linejoin:miter;stroke-miterlimit:4;stroke-dasharray:none;stroke-dashoffset:0;stroke-opacity:1;paint-order:normal"
       id="path961"
       cx="146.45747"
       cy="117.30356"
       r="43.388866" />
    <circle
       r="43.388866"
       cy="113.13156"
       cx="259.10165"
       id="circle963"
       style="display:inline;opacity:1;fill:#ededed;fill-opacity:1;stroke:none;stroke-width:0;stroke-linecap:butt;stroke-linejoin:miter;stroke-miterlimit:4;stroke-dasharray:none;stroke-dashoffset:0;stroke-opacity:1;paint-order:normal" />
    <path
       style="display:inline;fill:#ededed;fill-opacity:1;stroke:none;stroke-width:0.26458332px;stroke-linecap:butt;stroke-linejoin:miter;stroke-opacity:1"
       d="m 186.92593,175.29443 1.66881,40.46847 13.87195,-6.88381 1.98168,-37.33946 -17.10522,-0.4172 z"
       id="path965"
       inkscape:connector-curvature="0"
       sodipodi:nodetypes="cccccc" />
    <path
       style="display:inline;fill:#ededed;fill-opacity:1;stroke:none;stroke-width:0.26458332px;stroke-linecap:butt;stroke-linejoin:miter;stroke-opacity:1"
       d="m 204.03117,171.12243 -1.5645,33.79324 c 0,0 9.28272,1.46021 15.43642,-4.172 5.52793,-8.96982 4.90211,-33.37606 4.90211,-33.37606 0,0 -15.01923,5.00642 -18.77403,3.75482 z"
       id="path967"
       inkscape:connector-curvature="0"
       sodipodi:nodetypes="ccccc" />
    <path
       style="display:inline;fill:#e58383;fill-opacity:1;stroke:none;stroke-width:0.26458332px;stroke-linecap:butt;stroke-linejoin:miter;stroke-opacity:1"
       d="m 191.72377,150.88821 5.95251,-9.17407 h 8.7612 l -3.03211,13.76327 -8.96981,1.46021 z"
       id="path974"
       inkscape:connector-curvature="0"
       sodipodi:nodetypes="cccccc" />
    <path
       style="display:inline;fill:#e0cbb5;fill-opacity:1;stroke:none;stroke-width:0.26458332px;stroke-linecap:butt;stroke-linejoin:miter;stroke-opacity:1"
       d="m 61.142295,139.29687 17.068731,2.84479 c 0,0 19.913501,11.37915 25.603084,17.63767 5.68956,6.25854 -4.551667,26.17204 -4.551667,26.17204 l -13.65498,1.13792 -9.672271,11.9481 1.706875,23.32725 9.103313,16.49975 c 0,0 14.99996,8.13208 13.29309,14.39056 -1.706877,6.25854 -9.200919,15.52852 -12.61467,11.54579 -3.413729,-3.98267 -16.040275,-17.97093 -16.040275,-17.97093 l -9.103313,-13.08602 -5.120604,-26.17204 3.982687,-35.84432 6.258543,-14.22394 z"
       id="path994"
       inkscape:connector-curvature="0"
       sodipodi:nodetypes="cccccccccccccccc" />
    <path
       style="display:inline;fill:#e0cbb5;fill-opacity:1;stroke:none;stroke-width:0.26458332px;stroke-linecap:butt;stroke-linejoin:miter;stroke-opacity:1"
       d="m 342.77619,134.7452 c 0,0 -14.22392,4.55167 -28.44786,18.20665 -14.22394,13.65498 -10.81019,23.89621 -10.81019,23.89621 0,0 5.68957,-1.13792 11.94811,3.98268 6.25852,5.12063 11.9481,16.49978 11.9481,16.49978 l 0.56896,11.37914 0.56896,14.7929 -6.25854,18.20663 c 0,0 -5.12061,11.94808 -3.98271,17.63771 1.13794,5.68956 9.67229,11.3791 9.67229,11.3791 0,0 7.9654,-11.94808 13.65496,-18.20665 5.68956,-6.25848 14.22394,-18.77556 14.22394,-18.77556 l 1.13789,-14.22394 v -26.741 l -7.39639,-25.60309 v -9.67227 c 0,0 -5.68961,-17.06871 -6.82752,-22.75829 z"
       id="path996"
       inkscape:connector-curvature="0" />
    <path
       style="display:inline;fill:#878787;fill-opacity:1;stroke:none;stroke-width:0.26458332px;stroke-linecap:butt;stroke-linejoin:miter;stroke-opacity:1"
       d="m 199.11446,221.79568 -1.42239,21.90487 5.68957,5.12058 5.68958,-9.38778 0.85343,-29.87026 -5.68956,-1.99134 -3.12927,7.96539 -2.56032,0.56896 z"
       id="path851"
       inkscape:connector-curvature="0" />
    <path
       style="display:inline;fill:#e0cbb5;fill-opacity:1;stroke:none;stroke-width:0.26458332px;stroke-linecap:butt;stroke-linejoin:miter;stroke-opacity:1"
       d="m 179.62767,255.64866 4.83614,-2.56031 11.09468,0.14221 11.37914,3.69824 12.37482,-1.28014 0.85345,4.97835 -2.13359,4.26716 3.69822,5.40514 -2.56032,1.99132 -6.82748,2.13361 -17.92216,-5.12063 -7.9654,-1.56463 c 0,0 4.69389,-2.98703 3.69822,-4.97836 -0.99569,-1.99138 -10.52572,-7.11196 -10.52572,-7.11196 z"
       id="path853"
       inkscape:connector-curvature="0" />
    <path
       style="display:inline;fill:#878787;fill-opacity:1;stroke:none;stroke-width:0.26458332px;stroke-linecap:butt;stroke-linejoin:miter;stroke-opacity:1"
       d="m 64.556046,-34.804102 c 0,0 40.964944,-38.120148 47.223464,-38.120148 6.25852,0 14.13295,-0.907562 22.18933,2.844792 12.93124,6.022865 20.87294,16.045171 20.87294,16.045171 0,0 20.74181,24.155559 20.74181,33.827831 0,9.672292 -1.21877,82.694068 2.19496,87.245736 3.41375,4.551645 -5.68956,4.551645 -5.68956,4.551645 L 168.10628,48.263674 155.58922,28.350173 144.77903,3.3160464 132.26197,-12.045809 l -18.20663,-14.792875 -5.68958,1.137916 -10.241233,6.82748 c 0,0 -13.086022,13.0860214 -14.792897,18.77558403 C 81.624776,5.5918799 57.159608,11.850401 64.556046,-34.804102 Z"
       id="path855"
       inkscape:connector-curvature="0"
       sodipodi:nodetypes="csscsccccccccccc" />
    <path
       style="display:inline;fill:#878787;fill-opacity:1;stroke:none;stroke-width:0.26458332px;stroke-linecap:butt;stroke-linejoin:miter;stroke-opacity:1"
       d="M 217.03662,51.677424 213.62287,31.763923 210.7781,0.47125442 213.05393,-36.510977 224.43308,-62.114062 c 0,0 14.22391,-24.465147 30.15473,-23.896188 15.93081,0.568958 29.01683,6.258521 29.01683,6.258521 l 6.82748,11.379146 c 0,0 19.9135,50.068253 1.13792,35.275356 -18.77559,-14.792897 -18.77559,1.706875 -18.77559,1.706875 l -5.68958,-6.258542 -9.67227,10.241251 -18.20665,13.65498 -10.24123,17.0687094 -2.27583,36.4132726 -6.82748,16.499772 z"
       id="path857"
       inkscape:connector-curvature="0" />
  </g>
  <g
     inkscape:groupmode="layer"
     id="layer2"
     inkscape:label="Lines"
     style="display:inline">
    <path
       transform="translate(0,103)"
       inkscape:connector-curvature="0"
       style="color:#000000;font-style:normal;font-variant:normal;font-weight:normal;font-stretch:normal;font-size:medium;line-height:normal;font-family:sans-serif;font-variant-ligatures:normal;font-variant-position:normal;font-variant-caps:normal;font-variant-numeric:normal;font-variant-alternates:normal;font-feature-settings:normal;text-indent:0;text-align:start;text-decoration:none;text-decoration-line:none;text-decoration-style:solid;text-decoration-color:#000000;letter-spacing:normal;word-spacing:normal;text-transform:none;writing-mode:lr-tb;direction:ltr;text-orientation:mixed;dominant-baseline:auto;baseline-shift:baseline;text-anchor:start;white-space:normal;shape-padding:0;clip-rule:nonzero;display:inline;overflow:visible;visibility:visible;opacity:1;isolation:auto;mix-blend-mode:normal;color-interpolation:sRGB;color-interpolation-filters:linearRGB;solid-color:#000000;solid-opacity:1;vector-effect:none;fill:#000000;fill-opacity:1;fill-rule:nonzero;stroke:none;stroke-width:3.39999986;stroke-linecap:round;stroke-linejoin:miter;stroke-miterlimit:4;stroke-dasharray:none;stroke-dashoffset:0;stroke-opacity:1;color-rendering:auto;image-rendering:auto;shape-rendering:auto;text-rendering:auto;enable-background:accumulate"
       d="m 122.2704,-83.9308 c -0.43926,-0.0039 -0.87679,0.0028 -1.31349,0.0187 -6.99301,0.251086 -13.56751,2.861113 -19.61546,6.49155 -12.095861,7.260923 -22.363602,18.707112 -29.856067,25.079543 -4.486954,3.816204 -7.332393,10.105326 -9.083334,17.042381 -1.750981,6.937055 -2.34067,14.567683 -1.741417,21.223772 0.59923,6.6560886 2.171056,12.4436291 6.027317,15.6045831 1.928119,1.580477 4.600035,2.2591632 7.258304,1.6116128 2.658269,-0.6475503 5.294785,-2.38183661 8.125163,-5.2077647 9.96148,-9.9458162 19.753314,-17.5535202 27.308294,-22.8243792 2.43386,0.786209 6.96518,2.300663 9.00193,3.336527 2.83646,1.442652 6.92672,4.174717 11.6707,9.341849 9.48801,10.3342658 21.59055,30.458978 31.11346,69.34221 0.2899,1.263289 1.5584,2.045386 2.8173,1.737023 1.25889,-0.308367 2.02198,-1.587241 1.69521,-2.841496 -9.65098,-39.40612 -22.01802,-60.2853472 -32.20473,-71.380656 -5.09336,-5.547651 -9.64102,-8.637057 -12.9842,-10.337414 -1.78488,-0.908848 -4.04817,-1.834334 -6.11312,-2.57198 5.46983,-3.562932 8.91831,-5.392575 8.91831,-5.392575 1.13566,-0.597596 1.57125,-2.002878 0.97357,-3.138514 -0.59765,-1.135642 -2.00182,-1.571313 -3.13741,-0.97357 0,0 -20.91311,11.019688 -42.341945,32.4148474 -2.463906,2.4600368 -4.513899,3.6331455 -5.942611,3.9811765 -1.428707,0.3480311 -2.242795,0.1071 -3.21222,-0.6875459 -1.938849,-1.5892635 -3.800923,-6.3709717 -4.346403,-12.429763 -0.545475,-6.05879 0.0081,-13.285469 1.619312,-19.670465 1.611613,-6.384996 4.349574,-11.886485 7.589427,-14.642014 7.961119,-6.771034 18.008031,-17.893181 29.23563,-24.632911 5.6138,-3.36986 11.45358,-5.620478 17.39221,-5.833704 5.9386,-0.21322 12.05143,1.529099 18.55938,6.537753 13.74989,10.582203 24.97325,19.033673 32.62827,30.188296 7.65504,11.154629 11.96388,25.119178 11.68171,47.3747871 -0.57043,44.9946689 -5.05376,59.9442559 -5.05376,59.9442559 -0.41572,1.24593 0.2831,2.587847 1.54231,2.961409 1.25919,0.373535 2.57762,-0.37025 2.9086,-1.641318 0,0 0.83113,-2.870795 1.83383,-9.521156 0.84644,-0.357927 3.89082,-1.594479 8.05256,-2.628085 4.87681,-1.211217 11.00234,-1.953809 15.73219,-0.584141 l 0.0121,0.0034 0.011,0.0056 c 8.471,2.350335 13.20202,6.113121 13.20202,6.113121 1.00378,0.828603 2.4925,0.670829 3.30023,-0.349822 0.8077,-1.020657 0.61907,-2.506065 -0.41803,-3.292533 0,0 -5.53829,-4.36054 -14.81693,-6.940378 -5.6e-4,-2.48e-4 -0.001,2.42e-4 -0.002,0 -3.05582,-0.884499 -6.269,-1.0772 -9.37925,-0.885564 -3.11113,0.191699 -6.11943,0.768534 -8.76101,1.424601 -2.46819,0.613001 -4.61331,1.312341 -6.22203,1.889932 1.19822,-9.688636 2.42636,-24.63 2.70288,-46.4408246 0.2902,-22.8893374 -4.27123,-38.0707654 -12.49906,-50.0600694 -8.22783,-11.989309 -19.89955,-20.679429 -33.62273,-31.241068 -6.7764,-5.215273 -13.65026,-7.464861 -20.24471,-7.519022 z m 147.18252,0.221117 c -0.99193,-0.0086 -2.00672,0.01346 -3.04282,0.06931 -8.2888,0.446457 -17.99084,3.034163 -29.11131,9.023924 -11.51555,6.202569 -18.7064,17.07729 -23.0015,29.575554 -4.29513,12.498258 -5.78073,26.706414 -5.90741,40.1219801 -0.25339,26.8311439 4.99325,50.6200129 4.99325,50.6200129 0.24527,1.284484 1.5015,2.114141 2.77879,1.833828 1.27729,-0.280307 2.07194,-1.559142 1.75682,-2.8283 0,0 -5.13067,-23.383202 -4.88324,-49.582639 0.12368,-13.099713 1.60567,-26.872114 5.65439,-38.65338 4.04873,-11.78126 10.57949,-21.486911 20.81345,-26.999174 21.25808,-11.450149 35.88113,-9.647328 45.55636,-5.085649 4.8376,2.280837 8.44467,5.309187 10.90505,7.866642 2.26159,2.350841 3.39963,4.077907 3.88657,4.817237 0.0247,0.04686 0.0977,0.185762 0.14301,0.330019 0.0903,0.288592 0.2115,0.732402 0.34983,1.288189 0.27646,1.11157 0.61869,2.674975 0.98897,4.554318 0.7406,3.758697 1.59514,8.791176 2.30355,14.201988 1.41683,10.82162 2.14807,23.357232 0.61605,29.730659 -0.27577,1.147194 -0.23654,0.976071 -0.87237,1.045073 -0.63581,0.06901 -2.2156,-0.268338 -4.16818,-1.243085 -3.90501,-1.949506 -9.26642,-6.064587 -14.49351,-10.648739 -10.45421,-9.168304 -20.56813,-20.184201 -20.56813,-20.184201 -2.08756,-2.401094 -5.63524,0.855701 -3.42123,3.140717 0,0 5.77911,6.177741 13.27792,13.361529 -0.18712,-0.03729 -0.32537,0.104976 -0.51594,0.11441 -0.20904,0.01149 -0.39016,0.103771 -0.58853,0.17051 0,0 -10.42309,3.35188 -20.93336,15.286657 -10.51027,11.93478828 -21.30411,32.517183 -23.0433,66.812038 -0.0649,1.2816 0.92075,2.372943 2.20236,2.437767 1.2816,0.06482 2.37309,-0.921831 2.43776,-2.203454 1.69496,-33.422561 12.07988,-52.8405152 21.88822,-63.9782355 9.80833,-11.1377205 18.84651,-13.9258665 18.84651,-13.9258665 1.24304,-0.614268 1.84047,-0.92935 2.74029,-1.404797 1.86517,1.754777 2.65713,2.147805 4.61592,3.865668 5.36148,4.701998 10.80119,8.976774 15.48137,11.3131857 2.34009,1.1682085 4.49963,1.9486326 6.74347,1.7051161 2.24382,-0.2435164 4.30599,-2.1541134 4.88874,-4.5785138 1.90211,-7.91294 0.91692,-20.383842 -0.52803,-31.420382 -0.72247,-5.518273 -1.59014,-10.626845 -2.35197,-14.493504 -0.38097,-1.933335 -0.73255,-3.554241 -1.03737,-4.779833 -0.15242,-0.612798 -0.29238,-1.125588 -0.42683,-1.555508 -0.13433,-0.429915 -0.12367,-0.642927 -0.56324,-1.301392 -0.1703,-0.255165 -1.78753,-2.807218 -4.54992,-5.678594 -2.76236,-2.87137 -6.80878,-6.272478 -12.27354,-8.849009 -4.78169,-2.254466 -10.64339,-3.831766 -17.58692,-3.892072 z m 2.75568,135.668008 c -0.24961,0.0028 -0.49613,0.01498 -0.74145,0.0352 -3.92529,0.323907 -6.66735,3.040156 -8.27807,5.947016 -1.61074,2.90686 -2.37029,6.15778 -2.76669,8.6675 -0.14406,0.912295 -0.22416,1.672685 -0.27942,2.339864 -2.27862,-0.336817 -4.60822,-0.513736 -6.97889,-0.513736 -5.03632,0 -9.8915,0.791295 -14.4506,2.249656 -0.0149,-0.07144 -0.0212,-0.144561 -0.0429,-0.214515 0,0 -1.48844,-5.313733 -6.34304,-8.680703 -0.38026,-0.272782 -0.8335,-0.424068 -1.30139,-0.434533 -2.32077,-0.05142 -3.27313,2.957439 -1.34539,4.250697 3.31631,2.300105 4.53341,6.174728 4.53341,6.174728 0.0492,0.178159 0.12587,0.34615 0.21562,0.507135 -5.94433,2.559404 -11.25753,6.305473 -15.65959,10.927058 -1.63729,0.149393 -3.59611,0.223792 -5.70389,0.254116 a 10.963045,10.76189 0 0 0 0.17381,-1.848128 10.963045,10.76189 0 0 0 -10.96336,-10.762045 10.963045,10.76189 0 0 0 -10.96337,10.762045 10.963045,10.76189 0 0 0 0.0726,1.128681 c -2.70824,-0.173844 -4.71887,-0.329597 -5.7127,-0.408129 -8.48932,-7.913109 -19.86337,-12.766388 -32.35764,-12.766388 -26.20878,0 -47.53649,21.323324 -47.53649,47.532106 0,16.9753 8.95349,31.8936 22.37885,40.30459 -0.45375,0.33419 -0.78355,0.82663 -0.90097,1.4037 -0.28757,1.32795 -0.8848,2.10576 -1.76452,2.76449 -0.87968,0.65873 -2.08467,1.12098 -3.33213,1.3894 -2.49493,0.53685 -4.92284,0.29152 -4.92284,0.29152 -0.65145,-0.0845 -1.30793,0.11031 -1.80743,0.53683 -0.39523,-2.98524 -1.38301,-5.76869 -3.45203,-7.92055 -5.38026,-5.59559 -17.045691,-12.68718 -17.045691,-12.68718 -0.394335,-0.25242 -0.855397,-0.38071 -1.323392,-0.36632 -2.319537,0.0698 -3.114414,3.12395 -1.123178,4.3156 0,0 11.810681,7.45256 16.143621,11.95893 1.7268,1.79596 2.48209,5.18231 2.36407,9.25934 -0.11815,4.07704 -1.04013,8.65226 -1.93724,12.43416 -0.35333,1.48955 -0.76885,1.95285 -1.4785,2.36407 -0.70963,0.41122 -2.00273,0.69476 -3.90088,0.77665 -3.79626,0.16371 -9.687628,-0.39633 -17.13918,0.54674 -4.731253,0.59878 -8.036526,4.51943 -10.021696,9.38475 -1.985147,4.86532 -2.866915,10.96769 -2.681986,17.2591 0.18499,6.29143 1.447856,12.76744 3.999876,18.31297 2.552042,5.54551 6.467843,10.23681 11.980934,12.43856 18.832992,7.52138 31.724002,18.5968 31.724002,18.5968 2.35367,2.10094 5.45846,-1.51026 3.02851,-3.52244 0,0 -13.41587,-11.55518 -33.030893,-19.38886 -4.098944,-1.63699 -7.267721,-5.25146 -9.483757,-10.0668 -2.216019,-4.81538 -3.406054,-10.75145 -3.575251,-16.50664 -0.169236,-5.75521 0.695235,-11.33621 2.339865,-15.36697 1.644646,-4.03073 3.853174,-6.22185 6.305636,-6.53225 6.915866,-0.87525 12.354936,-0.32283 16.75416,-0.51263 2.19958,-0.095 4.22341,-0.35313 6.03062,-1.4004 1.80721,-1.04726 3.11146,-2.96087 3.66876,-5.31007 0.92407,-3.89564 1.92551,-8.71242 2.06044,-13.37363 0.0106,-0.3309 0.0122,-0.66154 0.0143,-0.99227 0.32113,0.21362 0.6907,0.34322 1.07478,0.37843 0,0 3.03781,0.36066 6.41125,-0.36523 1.68673,-0.36293 3.51506,-0.99581 5.13955,-2.21225 1.62449,-1.21645 3.0006,-3.09279 3.52244,-5.50258 0.0229,-0.0997 0.0355,-0.2004 0.0451,-0.30142 6.45464,3.28322 13.74793,5.14725 21.47129,5.14725 5.93774,0 11.62243,-1.09862 16.86747,-3.09671 0.31289,1.41428 0.9607,3.03719 2.26835,4.58072 0.99493,1.17442 2.31299,2.28474 4.04498,3.26282 -0.0221,0.0875 -0.0387,0.17577 -0.0506,0.26512 0,0 -1.20214,10.02215 7.55863,14.3956 1.14807,0.57332 2.54442,0.10749 3.11762,-1.04067 0.57319,-1.14816 0.10653,-2.54348 -1.04178,-3.11652 -4.662,-2.32731 -5.13823,-6.66315 -5.10215,-8.60589 3.94454,1.23573 9.21048,1.97472 16.23713,1.90312 14.25141,-0.14518 24.94375,-2.32715 32.09252,-5.52128 0.35006,-0.15646 0.68524,-0.3174 1.01867,-0.47853 0.017,0.92736 -0.004,2.32681 -0.23432,3.89647 -0.38486,2.62578 -1.41138,5.12166 -2.9053,5.95031 -1.16769,0.59883 -1.60768,2.04584 -0.97136,3.19352 0.63633,1.14769 2.09563,1.5411 3.22212,0.86797 3.65726,-2.0286 4.77589,-6.10472 5.24957,-9.33635 0.47365,-3.23164 0.23211,-6.03062 0.23211,-6.03062 -0.0268,-0.37532 -0.14495,-0.73847 -0.34322,-1.05827 1.10108,-0.81183 2.05092,-1.6719 2.82499,-2.59178 0.27261,-0.32396 0.51659,-0.66239 0.74475,-1.00767 4.72278,1.57692 9.77247,2.43337 15.01824,2.43337 15.53253,0 29.34951,-7.49185 38.02965,-19.05003 0.89713,1.42913 2.03737,2.94294 3.45863,4.2793 0.97228,0.91418 2.11223,1.75242 3.39814,2.38826 -2.04314,2.38122 -4.22849,5.54267 -4.51911,9.28135 -0.21054,2.70795 0.97364,5.69547 3.72816,7.86115 2.69375,2.11789 6.7839,3.6718 12.78398,4.79413 2.46132,0.8526 6.41396,4.62513 9.65317,10.51893 3.23922,5.89379 5.93107,13.79921 6.89858,22.64837 1.93502,17.69831 -2.84806,39.0835 -23.59884,56.88163 -2.48418,2.00423 0.6642,5.67503 3.02301,3.52464 21.88969,-18.7749 27.26538,-41.96388 25.19395,-60.9101 -1.03576,-9.47311 -3.88893,-17.90815 -7.44641,-24.381 -3.55749,-6.47285 -7.65207,-11.09239 -12.20206,-12.66848 l -0.1716,-0.0616 -0.17601,-0.0319 c -5.80508,-1.05068 -9.29202,-2.55705 -11.08658,-3.96798 -1.79458,-1.41095 -2.07242,-2.47685 -1.96583,-3.84806 0.19244,-2.47583 2.93955,-6.0126 5.10545,-8.45629 3.53695,-0.0866 7.37448,-1.87052 11.432,-5.7688 2.32577,-2.1428 -0.98353,-5.58676 -3.21773,-3.34863 -3.5237,3.38544 -6.26454,4.4257 -8.33308,4.47511 -0.19648,0.005 -0.38871,-0.003 -0.57864,-0.0154 -0.0815,-0.0106 -0.1641,-0.0166 -0.24641,-0.0187 h -0.006 c -1.70005,-0.17711 -3.14731,-1.02149 -4.4839,-2.27826 -1.64641,-1.54805 -2.90257,-3.6378 -3.73146,-5.27156 4.18307,-7.07483 6.59385,-15.31505 6.59385,-24.11147 0,-22.220819 -15.33078,-40.930906 -35.96919,-46.110801 0.0336,-0.583719 0.11545,-1.47612 0.28162,-2.529079 0.34422,-2.179318 1.06471,-5.012095 2.24416,-7.140593 1.17942,-2.128508 2.53841,-3.397931 4.59392,-3.56755 2.04583,-0.168831 5.43685,0.91644 10.30881,5.120857 2.10938,2.081298 3.46325,4.293656 5.27486,6.625758 1.82703,2.351963 4.19017,4.755445 8.02946,6.574059 23.94075,11.340351 28.08918,32.880089 27.90234,43.596029 l -0.0264,1.44 1.28379,0.66554 c 1.73506,0.89602 2.49398,1.79422 2.8789,2.58738 0.38493,0.79318 0.43297,1.58674 0.29372,2.43337 -0.27844,1.69329 -1.37179,3.21002 -1.37179,3.21002 -1.89134,2.45334 1.78842,5.29041 3.67975,2.8371 0,0 1.76752,-2.19872 2.27606,-5.29137 0.25428,-1.54632 0.17639,-3.4114 -0.69965,-5.21656 -0.7135,-1.47017 -2.06778,-2.76837 -3.79966,-3.89537 -0.1124,-12.35021 -5.39086,-34.703705 -30.42701,-46.562935 -3.11798,-1.476914 -4.7445,-3.156994 -6.35294,-5.227557 -1.60847,-2.070596 -3.13519,-4.599804 -5.7369,-7.148298 l -0.0506,-0.05058 -0.0539,-0.04511 c -5.06565,-4.389711 -9.30374,-6.355139 -13.04801,-6.316642 z m -163.06211,9.375954 c -1.48339,-0.01194 -2.99563,0.115943 -4.51251,0.430129 -4.04502,0.837807 -8.085861,3.07074 -11.335187,7.209899 -6.204749,7.903973 -5.957549,14.112873 -4.743527,18.718901 0.60702,2.303012 1.304372,4.221973 1.504902,5.966814 0.20053,1.744836 0.04112,3.3199 -1.201282,5.501477 -6.002067,10.538771 -7.563782,17.753881 -8.386979,26.178521 -0.381375,3.90307 -1.202887,6.03303 -1.795324,7.09769 -0.296242,0.53234 -0.535579,0.80339 -0.647945,0.91637 -0.02343,0.0234 -0.02642,0.0303 -0.02749,0.0352 l -0.0023,10e-4 c -0.282447,-0.12518 -0.561386,-0.25266 -0.845957,-0.37513 -2.332863,-1.00412 -4.67734,-1.90469 -6.740169,-2.34097 -1.031415,-0.21811 -1.980895,-0.36361 -3.075815,-0.15951 -0.547457,0.10197 -1.171295,0.31241 -1.740319,0.79756 -0.569046,0.48512 -0.981185,1.26238 -1.093478,1.97244 -0.40632,2.56928 -0.230764,6.97618 -0.15511,11.43859 0.03791,2.23121 0.06706,4.40596 0.0396,6.13183 -0.02765,1.72586 -0.26782,3.27191 -0.200209,3.06921 -0.398593,1.19386 -5.575002,16.62729 -8.16477,34.82951 -2.589762,18.20225 -2.878754,39.40184 7.759942,52.43294 9.987394,12.23327 17.353959,16.70421 23.582335,18.92906 6.228399,2.22479 10.659818,2.2507 15.940102,5.95028 1.04991,0.77615 2.53306,0.53452 3.28263,-0.53462 0.74956,-1.0692 0.47159,-2.5459 -0.61605,-3.26831 -6.254128,-4.382 -11.537294,-4.55593 -17.045676,-6.52349 -5.508382,-1.96757 -11.902554,-5.68173 -21.543894,-17.49122 -8.990017,-11.01164 -9.278638,-31.12865 -6.758869,-48.83899 2.519791,-17.71034 7.5614,-32.78481 7.972254,-34.01546 0.472395,-1.41489 0.40845,-2.62272 0.437829,-4.46411 0.0294,-1.84139 -5.63e-4,-4.04691 -0.0396,-6.28583 -0.0677,-3.98567 -0.05047,-7.67063 0.0858,-9.46506 0.172221,0.0213 0.156896,-0.006 0.369626,0.0396 1.448504,0.30634 3.671778,1.11696 5.868911,2.06265 4.394211,1.89139 8.788507,4.2859 8.788507,4.2859 1.126675,0.61458 2.538242,0.19935 3.15282,-0.92737 0.614556,-1.12668 0.200452,-2.53826 -0.926263,-3.15282 0,0 -1.67883,-0.9144 -4.03398,-2.07914 0.144752,-0.21808 0.290209,-0.4504 0.435626,-0.71175 0.979197,-1.75965 1.931611,-4.52346 2.359667,-8.90402 0.795649,-8.14268 2.067026,-14.26326 7.80174,-24.33259 1.691739,-2.970436 2.064108,-5.839187 1.777723,-8.330872 -0.286384,-2.491686 -1.096857,-4.601371 -1.628115,-6.616961 -1.062495,-4.031175 -1.625638,-7.621436 3.906372,-14.668418 2.619079,-3.336336 5.535382,-4.891568 8.623492,-5.531183 3.08814,-0.63962 6.38809,-0.289189 9.43645,0.530234 6.09674,1.638851 10.94137,5.054851 10.94137,5.054851 2.52268,1.796693 5.21787,-1.98757 2.69518,-3.784263 0,0 -5.37435,-3.858745 -12.43086,-5.755599 -1.76414,-0.474208 -3.64897,-0.831375 -5.59829,-0.965865 -0.48734,-0.03363 -0.97855,-0.05323 -1.473,-0.0572 z m 139.55678,15.564976 c 20.87401,0 37.74032,16.844572 37.74032,37.679815 0,20.83528 -16.86631,37.67982 -37.74032,37.67982 -10.42454,0 -19.84534,-4.20631 -26.67025,-11.00737 -5.59905,-6.89176 -8.95351,-15.68374 -8.95351,-25.28085 0,-18.183688 12.03367,-33.484573 28.58988,-38.412464 2.27929,-0.427668 4.62859,-0.658951 7.03388,-0.658951 z m -91.00381,2.573079 c 7.08743,0 13.71008,1.945924 19.37014,5.326569 9.90806,7.28806 16.32624,19.027727 16.32624,32.307047 0,13.56773 -6.70278,25.5251 -16.97968,32.77347 -5.51464,3.1458 -11.89899,4.95144 -18.7167,4.95144 -20.87398,0 -37.74362,-16.84347 -37.74362,-37.67871 0,-20.835273 16.86964,-37.679821 37.74362,-37.679816 z m 14.93024,9.726874 c -2.92201,0.0017 -5.50405,7.589303 -6.37385,18.729902 l 6.02403,7.33201 -6.22754,-3.78977 c -0.0636,1.45161 -0.0971,2.92224 -0.10011,4.39591 -1.7e-4,14.73025 2.99021,26.67131 6.67857,26.67025 3.68804,-5.6e-4 6.67763,-11.94126 6.67746,-26.67025 -1.7e-4,-14.72804 -2.98966,-26.667348 -6.67746,-26.668052 z m 60.70661,0 c -3.68781,5.64e-4 -6.6773,11.940012 -6.67747,26.668052 -1.6e-4,14.72899 2.98942,26.66955 6.67747,26.67025 3.68807,-5.6e-4 6.67763,-11.94126 6.67746,-26.67025 -0.002,-1.47358 -0.0355,-2.94421 -0.099,-4.39591 l -6.22754,3.78977 6.02402,-7.33201 c -0.8698,-11.140604 -3.45294,-18.728325 -6.37494,-18.729902 z m 114.14281,33.228912 c -0.22986,0.002 -0.4587,0.009 -0.68754,0.0176 -1.83335,0.0743 -3.62439,0.37 -5.22754,0.69635 -3.20655,0.6527 -5.69182,1.5478 -5.69182,1.5478 -1.20776,0.43391 -1.83541,1.76465 -1.4015,2.97241 0.43393,1.20776 1.76577,1.83433 2.97351,1.40039 0,0 2.18875,-0.78705 5.04493,-1.36849 2.85624,-0.58143 6.35007,-0.82975 8.36281,-0.18371 1.00639,0.32299 1.57701,0.74655 1.95044,1.3894 0.37343,0.64283 0.63539,1.70766 0.31569,3.61045 -0.6395,3.80559 -3.7893,10.54216 -11.27356,20.69353 -0.79575,1.03133 -0.58859,2.51504 0.45982,3.28813 1.04842,0.77307 2.52816,0.53367 3.27822,-0.53134 0.27222,-0.36925 0.52686,-0.72501 0.78876,-1.08577 0.49706,7.96045 1.96086,22.28567 6.29026,35.84269 6.04288,18.92293 1.97409,42.38395 -8.1285,54.06321 -5.28017,6.10444 -9.8788,9.52443 -15.05232,13.54196 -5.17355,4.01753 -10.872,8.60618 -17.86414,16.75084 -2.01755,2.35006 1.50819,5.3764 3.52574,3.02634 6.74438,-7.85611 12.05985,-12.12558 17.1887,-16.10847 5.12883,-3.98283 10.11905,-7.70471 15.71348,-14.17227 11.64688,-13.46455 15.59271,-38.00541 9.04376,-58.51301 -6.14866,-19.25407 -6.32878,-40.74023 -6.32878,-40.74023 0,-0.0217 -0.006,-0.0443 -0.006,-0.066 4.16977,-6.4833 6.29014,-11.339 6.94259,-15.22176 0.44074,-2.62321 0.16796,-4.9102 -0.87786,-6.71046 -1.04582,-1.80027 -2.77733,-2.90985 -4.54883,-3.47844 -1.54958,-0.49739 -3.17971,-0.67462 -4.7908,-0.66115 z M 205.7695,136.20327 c 1.57685,-0.0335 3.17038,0.14644 4.69512,0.63035 4.86725,9.92239 13.08741,17.91398 23.17971,22.47785 -1.18951,1.31432 -3.25864,2.78848 -6.23083,4.11649 -6.27677,2.80449 -16.45149,4.97816 -30.2455,5.11866 -13.66516,0.13922 -19.09452,-2.96865 -21.17317,-5.42228 -1.20492,-1.42227 -1.49162,-2.66315 -1.52691,-3.46744 7.20623,-3.59789 13.37471,-8.96943 17.93125,-15.54408 l -0.81956,4.08678 0.52034,0.79536 c 0,0 1.22646,1.86964 2.59948,3.88987 0.68653,1.0101 1.40811,2.05969 2.04614,2.946 0.63804,0.88632 1.07123,1.51435 1.66552,2.10775 0.76552,0.76436 1.84488,1.07365 2.66218,1.07367 0.8173,0 1.45785,-0.20484 1.98894,-0.41692 1.06215,-0.42421 1.81732,-1.0143 1.81732,-1.01427 l 0.53244,-0.39713 6.35734,-16.42964 -17.46371,0.37292 c 0.46534,-0.79108 0.906,-1.59801 1.32669,-2.41687 2.35423,-1.04225 6.17982,-2.42314 10.13721,-2.50707 z m -0.83496,9.34405 -3.31893,8.58169 c -0.0986,0.0551 -0.11685,0.0769 -0.22772,0.12541 -0.19244,-0.23946 -0.4306,-0.52271 -0.87236,-1.13638 -0.59605,-0.82805 -1.30401,-1.85153 -1.97684,-2.84149 -1.06928,-1.57332 -1.67018,-2.4948 -2.02853,-3.03952 l 0.30252,-1.5181 z m 17.04238,25.53937 c -1.27971,0.0617 -2.2685,1.14793 -2.20895,2.42787 0,0 0.56181,17.74402 0.002,27.79673 -0.11176,2.00758 -0.76524,2.97168 -1.76672,3.75346 -1.0015,0.78173 -2.51742,1.28621 -4.15939,1.5027 -3.284,0.43304 -6.72917,-0.25631 -6.72917,-0.25632 -0.54575,-0.12599 -1.11921,-0.0506 -1.6138,0.21232 l 1.16498,-30.71193 c 0.0486,-1.28221 -0.95093,-2.36061 -2.23316,-2.40917 -1.2822,-0.0486 -2.36178,0.95205 -2.41027,2.23426 l -1.37069,36.1661 -5.52459,2.04945 -1.05277,-38.19135 c -0.017,-1.30856 -1.11263,-2.34524 -2.42017,-2.29036 -1.2814,0.0538 -2.27672,1.13655 -2.22325,2.41797 l 1.23539,44.67299 14.51,-5.38267 0.17272,-4.54221 c 0.24576,0.15561 0.51847,0.2641 0.80415,0.31902 0,0 3.99595,0.8849 8.29568,0.31792 0.0191,-0.005 0.0387,-0.007 0.0572,-0.009 -0.29149,0.3898 -0.45411,0.86093 -0.46314,1.34759 0,0 -0.21673,7.13536 0.0726,15.19095 0.14476,4.02782 0.41448,8.2918 0.91306,12.06674 0.49859,3.7749 1.1176,6.99433 2.45647,9.38145 0.62772,1.11933 2.04449,1.51872 3.16383,0.89105 1.11933,-0.62773 1.51767,-2.04451 0.88996,-3.16383 -0.66439,-1.18455 -1.43807,-4.17907 -1.90534,-7.71701 -0.46728,-3.53794 -0.7364,-7.68655 -0.87786,-11.62341 -0.28289,-7.87368 -0.0693,-14.88403 -0.0693,-14.88403 0.0385,-0.89458 -0.44114,-1.73202 -1.23209,-2.15175 1.18614,-0.3908 2.35028,-0.95181 3.40694,-1.77662 1.94971,-1.52193 3.37217,-4.02048 3.54665,-7.156 0.58537,-10.51961 0.001,-28.20375 0.001,-28.20375 -0.0232,-1.30936 -1.1232,-2.34103 -2.43117,-2.27936 z m -23.0411,47.14157 c -1.28161,-0.0149 -2.33271,1.00985 -2.34976,2.29146 0,0 -0.14214,5.2401 -0.60174,11.09867 -0.22976,2.92928 -0.53893,6.01049 -0.94057,8.6235 -0.40166,2.61301 -0.98679,4.84368 -1.36079,5.59059 -0.58985,1.14951 -0.12898,2.55924 1.02637,3.13741 1.15544,0.57816 2.56105,0.10189 3.12752,-1.0594 0.91377,-1.82467 1.36859,-4.1666 1.79862,-6.96455 0.43008,-2.79796 0.74379,-5.96493 0.97907,-8.96452 0.47056,-5.99909 0.61604,-11.33299 0.61604,-11.33299 0.0549,-1.30973 -0.98396,-2.40563 -2.29476,-2.42017 z m -8.85781,26.09051 c -0.44387,-0.0149 -0.88308,0.0968 -1.26509,0.32342 0,0 -2.72219,1.4776 -4.61152,4.23972 -0.94464,1.38106 -1.723,3.19548 -1.62701,5.29462 0.096,2.09925 1.10864,4.30512 3.08461,6.31999 1.45313,1.48143 1.79488,2.47116 1.83603,2.92839 0.0411,0.45718 -0.0659,0.65866 -0.44663,1.05827 -0.76149,0.7993 -2.55658,1.43339 -2.55658,1.43339 -1.23821,0.33603 -1.96867,1.61216 -1.63251,2.85027 0.33617,1.23817 1.61217,1.96886 2.8503,1.63255 0,0 2.67517,-0.58115 4.70392,-2.71059 1.01436,-1.06474 1.88079,-2.75396 1.70732,-4.68085 -0.17349,-1.92679 -1.23677,-3.81629 -3.14622,-5.76329 -1.38662,-1.4139 -1.72307,-2.44649 -1.76122,-3.28042 -0.0381,-0.83398 0.26509,-1.64426 0.82286,-2.45977 1.11553,-1.63086 3.08131,-2.83051 3.08131,-2.83051 2.06406,-1.13864 1.31627,-4.27259 -1.03957,-4.35519 z m 40.25069,2.71392 c -2.31775,0.10025 -3.07255,3.16151 -1.06708,4.32764 0,0 0.97228,0.61269 1.52361,1.83278 0.55133,1.22003 0.91906,2.96951 -1.56101,6.38589 -1.60874,2.21624 -2.3775,4.2693 -2.25405,6.21433 0.12344,1.94509 1.22743,3.49141 2.38716,4.41906 2.31947,1.85492 5.07576,2.10331 5.07576,2.10331 1.28675,0.20823 2.49322,-0.68344 2.67208,-1.97461 0.17882,-1.29122 -0.74021,-2.4765 -2.03514,-2.62587 0,0 -1.89391,-0.39455 -2.81179,-1.12873 -0.45895,-0.36678 -0.62041,-0.60318 -0.65125,-1.08903 -0.0309,-0.48585 0.15672,-1.51229 1.37399,-3.18917 3.17199,-4.36961 3.21989,-8.40775 2.03624,-11.02715 -1.18362,-2.61934 -3.36183,-3.89868 -3.36183,-3.89868 -0.39674,-0.24749 -0.85949,-0.36926 -1.32669,-0.34977 z m -37.61051,2.33434 c -2.43886,-0.0129 -3.24807,3.26104 -1.08357,4.38487 0,0 3.59007,1.92774 6.05482,3.10553 l 0.12651,0.0616 0.1353,0.0428 c 7.03306,2.36374 18.97483,2.41522 27.62512,-1.56654 1.1577,-0.54099 1.66175,-1.91608 1.12758,-3.07692 -0.53418,-1.16083 -1.90524,-1.67248 -3.06921,-1.14518 -6.98361,3.21464 -18.73323,3.17701 -24.11698,1.40151 -2.2691,-1.09584 -5.68847,-2.91628 -5.68849,-2.91628 -0.34011,-0.18818 -0.72239,-0.2881 -1.11108,-0.29046 z"
       id="path826" />
  </g>
</svg>
